grf
version=1
nRows=16
nColumns=46
inDegrees=yes
endheader
time	ground_force_1_vx	ground_force_1_vy	ground_force_1_vz	ground_force_1_px	ground_force_1_py	ground_force_1_pz	ground_moment_1_mx	ground_moment_1_my	ground_moment_1_mz	ground_force_2_vx	ground_force_2_vy	ground_force_2_vz	ground_force_2_px	ground_force_2_py	ground_force_2_pz	ground_moment_2_mx	ground_moment_2_my	ground_moment_2_mz	ground_force_3_vx	ground_force_3_vy	ground_force_3_vz	ground_force_3_px	ground_force_3_py	ground_force_3_pz	ground_moment_3_mx	ground_moment_3_my	ground_moment_3_mz	ground_force_4_vx	ground_force_4_vy	ground_force_4_vz	ground_force_4_px	ground_force_4_py	ground_force_4_pz	ground_moment_4_mx	ground_moment_4_my	ground_moment_4_mz	ground_force_5_vx	ground_force_5_vy	ground_force_5_vz	ground_force_5_px	ground_force_5_py	ground_force_5_pz	ground_moment_5_mx	ground_moment_5_my	ground_moment_5_mz
0.000000	0.000000	0.000000	0.000000	0.000000	0.000000	0.000000	0.000000	0.000000	0.000000	0.000000	0.000000	0.000000	0.000000	0.000000	0.000000	0.000000	0.000000	0.000000	0.000000	0.000000	0.000000	0.000000	0.000000	0.000000	0.000000	0.000000	0.000000	4.692663	444.731872	-106.049417	0.183068	0.000000	-0.901812	-0.000000	2.931027	0.000000	-4.249196	437.255875	111.243207	0.210323	0.000000	-1.584223	0.000000	-3.108359	-0.000000
0.000500	0.000000	0.000000	0.000000	0.000000	0.000000	0.000000	0.000000	0.000000	0.000000	0.000000	0.000000	0.000000	0.000000	0.000000	0.000000	0.000000	0.000000	0.000000	0.000000	0.000000	0.000000	0.000000	0.000000	0.000000	0.000000	0.000000	0.000000	4.730476	444.699948	-106.044216	0.183086	0.000000	-0.901791	-0.000000	2.930425	0.000000	-4.237895	437.301693	111.246838	0.210332	0.000000	-1.584258	0.000000	-3.105666	-0.000000
0.001000	0.000000	0.000000	0.000000	0.000000	0.000000	0.000000	0.000000	0.000000	0.000000	0.000000	0.000000	0.000000	0.000000	0.000000	0.000000	0.000000	0.000000	0.000000	0.000000	0.000000	0.000000	0.000000	0.000000	0.000000	0.000000	0.000000	0.000000	4.768029	444.668834	-106.039387	0.183104	0.000000	-0.901770	-0.000000	2.929793	0.000000	-4.226565	437.347682	111.250625	0.210340	0.000000	-1.584293	0.000000	-3.103020	-0.000000
0.001500	0.000000	0.000000	0.000000	0.000000	0.000000	0.000000	0.000000	0.000000	0.000000	0.000000	0.000000	0.000000	0.000000	0.000000	0.000000	0.000000	0.000000	0.000000	0.000000	0.000000	0.000000	0.000000	0.000000	0.000000	0.000000	0.000000	0.000000	4.805174	444.638658	-106.034952	0.183121	0.000000	-0.901750	-0.000000	2.929135	0.000000	-4.215226	437.393626	111.254544	0.210349	0.000000	-1.584328	0.000000	-3.100429	-0.000000
0.002000	0.000000	0.000000	0.000000	0.000000	0.000000	0.000000	0.000000	0.000000	0.000000	0.000000	0.000000	0.000000	0.000000	0.000000	0.000000	0.000000	0.000000	0.000000	0.000000	0.000000	0.000000	0.000000	0.000000	0.000000	0.000000	0.000000	0.000000	4.841770	444.609541	-106.030932	0.183138	0.000000	-0.901730	-0.000000	2.928457	0.000000	-4.203895	437.439329	111.258570	0.210357	0.000000	-1.584363	0.000000	-3.097898	-0.000000
0.002500	0.000000	0.000000	0.000000	0.000000	0.000000	0.000000	0.000000	0.000000	0.000000	0.000000	0.000000	0.000000	0.000000	0.000000	0.000000	0.000000	0.000000	0.000000	0.000000	0.000000	0.000000	0.000000	0.000000	0.000000	0.000000	0.000000	0.000000	4.877692	444.581605	-106.027351	0.183154	0.000000	-0.901710	-0.000000	2.927763	0.000000	-4.192588	437.484637	111.262681	0.210364	0.000000	-1.584397	0.000000	-3.095428	-0.000000
0.003000	0.000000	0.000000	0.000000	0.000000	0.000000	0.000000	0.000000	0.000000	0.000000	0.000000	0.000000	0.000000	0.000000	0.000000	0.000000	0.000000	0.000000	0.000000	0.000000	0.000000	0.000000	0.000000	0.000000	0.000000	0.000000	0.000000	0.000000	4.912827	444.554977	-106.024233	0.183170	0.000000	-0.901692	-0.000000	2.927057	0.000000	-4.181318	437.529431	111.266856	0.210371	0.000000	-1.584431	0.000000	-3.093021	-0.000000
0.003500	0.000000	0.000000	0.000000	0.000000	0.000000	0.000000	0.000000	0.000000	0.000000	0.000000	0.000000	0.000000	0.000000	0.000000	0.000000	0.000000	0.000000	0.000000	0.000000	0.000000	0.000000	0.000000	0.000000	0.000000	0.000000	0.000000	0.000000	4.947073	444.529780	-106.021602	0.183185	0.000000	-0.901673	-0.000000	2.926343	0.000000	-4.170099	437.573623	111.271074	0.210378	0.000000	-1.584464	0.000000	-3.090674	-0.000000
0.004000	0.000000	0.000000	0.000000	0.000000	0.000000	0.000000	0.000000	0.000000	0.000000	0.000000	0.000000	0.000000	0.000000	0.000000	0.000000	0.000000	0.000000	0.000000	0.000000	0.000000	0.000000	0.000000	0.000000	0.000000	0.000000	0.000000	0.000000	4.980338	444.506125	-106.019482	0.183200	0.000000	-0.901656	-0.000000	2.925626	0.000000	-4.158939	437.617141	111.275311	0.210385	0.000000	-1.584496	0.000000	-3.088383	-0.000000
0.004500	0.000000	0.000000	0.000000	0.000000	0.000000	0.000000	0.000000	0.000000	0.000000	0.000000	0.000000	0.000000	0.000000	0.000000	0.000000	0.000000	0.000000	0.000000	0.000000	0.000000	0.000000	0.000000	0.000000	0.000000	0.000000	0.000000	0.000000	5.012542	444.484102	-106.017888	0.183214	0.000000	-0.901639	-0.000000	2.924910	0.000000	-4.147845	437.659932	111.279539	0.210391	0.000000	-1.584528	0.000000	-3.086143	-0.000000
0.005000	0.000000	0.000000	0.000000	0.000000	0.000000	0.000000	0.000000	0.000000	0.000000	0.000000	0.000000	0.000000	0.000000	0.000000	0.000000	0.000000	0.000000	0.000000	0.000000	0.000000	0.000000	0.000000	0.000000	0.000000	0.000000	0.000000	0.000000	5.043613	444.463770	-106.016835	0.183227	0.000000	-0.901623	-0.000000	2.924201	0.000000	-4.136822	437.701964	111.283732	0.210397	0.000000	-1.584559	0.000000	-3.083947	-0.000000
0.005500	0.000000	0.000000	0.000000	0.000000	0.000000	0.000000	0.000000	0.000000	0.000000	0.000000	0.000000	0.000000	0.000000	0.000000	0.000000	0.000000	0.000000	0.000000	0.000000	0.000000	0.000000	0.000000	0.000000	0.000000	0.000000	0.000000	0.000000	5.073490	444.445168	-106.016333	0.183240	0.000000	-0.901607	-0.000000	2.923505	0.000000	-4.125875	437.743221	111.287858	0.210403	0.000000	-1.584589	0.000000	-3.081788	-0.000000
0.006000	0.000000	0.000000	0.000000	0.000000	0.000000	0.000000	0.000000	0.000000	0.000000	0.000000	0.000000	0.000000	0.000000	0.000000	0.000000	0.000000	0.000000	0.000000	0.000000	0.000000	0.000000	0.000000	0.000000	0.000000	0.000000	0.000000	0.000000	5.102120	444.428313	-106.016386	0.183251	0.000000	-0.901593	-0.000000	2.922831	0.000000	-4.115008	437.783696	111.291890	0.210408	0.000000	-1.584618	0.000000	-3.079659	-0.000000
0.006500	0.000000	0.000000	0.000000	0.000000	0.000000	0.000000	0.000000	0.000000	0.000000	0.000000	0.000000	0.000000	0.000000	0.000000	0.000000	0.000000	0.000000	0.000000	0.000000	0.000000	0.000000	0.000000	0.000000	0.000000	0.000000	0.000000	0.000000	5.129462	444.413203	-106.016990	0.183262	0.000000	-0.901579	-0.000000	2.922185	0.000000	-4.104228	437.823386	111.295800	0.210413	0.000000	-1.584646	0.000000	-3.077555	-0.000000
0.007000	0.000000	0.000000	0.000000	0.000000	0.000000	0.000000	0.000000	0.000000	0.000000	0.000000	0.000000	0.000000	0.000000	0.000000	0.000000	0.000000	0.000000	0.000000	0.000000	0.000000	0.000000	0.000000	0.000000	0.000000	0.000000	0.000000	0.000000	5.155486	444.399815	-106.018131	0.183273	0.000000	-0.901566	-0.000000	2.921574	0.000000	-4.093538	437.862285	111.299564	0.210417	0.000000	-1.584673	0.000000	-3.075471	-0.000000
0.007500	0.000000	0.000000	0.000000	0.000000	0.000000	0.000000	0.000000	0.000000	0.000000	0.000000	0.000000	0.000000	0.000000	0.000000	0.000000	0.000000	0.000000	0.000000	0.000000	0.000000	0.000000	0.000000	0.000000	0.000000	0.000000	0.000000	0.000000	5.180177	444.388119	-106.019788	0.183282	0.000000	-0.901554	-0.000000	2.921001	0.000000	-4.082942	437.900389	111.303166	0.210422	0.000000	-1.584699	0.000000	-3.073401	-0.000000
